<svg xmlns="http://www.w3.org/2000/svg" width="250" height="150" viewBox="0 0 250 150">
  <g fill="none">
    <polygon fill="#006" points="-26 0 275.868 0 275.868 150.777 -26 150.777"/>
    <path fill="#FFF" d="M-26,0 L-26,16.8572891 L242.119206,150.777974 L275.86791,150.777974 L275.86791,133.921273 L7.74870384,0 L-26,0 Z M275.86791,0 L275.86791,16.8569946 L7.74870384,150.777385 L-26,150.777385 L-26,133.92039 L242.119206,0 L275.86791,0 Z"/>
    <path fill="#FFF" d="M99.778296,0 L99.778296,150.777385 L150.089614,150.777385 L150.089614,0 L99.778296,0 L99.778296,0 Z M-26,50.2591282 L-26,100.518256 L275.86791,100.518256 L275.86791,50.2591282 L-26,50.2591282 Z"/>
    <path fill="#C00" d="M-26,60.3109539 L-26,90.4664308 L275.86791,90.4664308 L275.86791,60.3109539 L-26,60.3109539 Z M109.840854,0 L109.840854,150.777385 L140.027056,150.777385 L140.027056,0 L109.840854,0 L109.840854,0 Z M-26,150.777385 L74.6226368,100.518256 L97.1219692,100.518256 L-3.50066758,150.777385 L-26,150.777385 Z M-26,0 L74.6226368,50.2591282 L52.1233043,50.2591282 L-26,11.2385854 L-26,0 Z M152.745941,50.2591282 L253.368578,0 L275.86791,0 L175.245274,50.2591282 L152.745941,50.2591282 Z M275.86791,150.777385 L175.245274,100.518256 L197.744606,100.518256 L275.86791,139.539388 L275.86791,150.777385 Z"/>
  </g>
</svg>
